<svg width="1631" height="740" viewBox="0 0 1631 740" fill="none" xmlns="http://www.w3.org/2000/svg">
<path d="M1 58L62.6635 3.50671C64.4912 1.8915 66.8463 1 69.2854 1H429V527.63C429 530.12 428.071 532.52 426.395 534.362L353 615H99.8312C96.2277 615 92.9029 613.061 91.1281 609.925L57.5 550.5L20.2525 483.261C19.431 481.778 19 480.111 19 478.415V397.5L74.5045 332.033C76.4045 329.792 79.194 328.5 82.1321 328.5H158L217 451H243.5V142C243.5 136.477 239.023 132 233.5 132H11C5.47715 132 1 127.523 1 122V58Z" fill="#DA7E3B"/>
<path d="M1 58L62.6635 3.50671C64.4912 1.8915 66.8463 1 69.2854 1H429M1 58H353M1 58V122C1 127.523 5.47715 132 11 132H233.5C239.023 132 243.5 136.477 243.5 142V451M429 1L353 58M429 1V527.631C429 530.12 428.071 532.52 426.395 534.362L353 615M353 58V615M353 615H99.8312C96.2277 615 92.9029 613.061 91.1281 609.925L57.5 550.5L20.2525 483.261C19.431 481.778 19 480.111 19 478.415V397.5M19 397.5H101.5M19 397.5L74.5045 332.033C76.4045 329.792 79.194 328.5 82.1321 328.5H158M101.5 397.5L158 512.5M101.5 397.5L158 328.5M158 512.5H233.5C239.023 512.5 243.5 508.023 243.5 502.5V451M158 512.5L217 451M158 328.5L217 451M217 451H243.5" stroke="#2852EB" stroke-width="2"/>
<path d="M669 614.5H557.5C551.977 614.5 547.5 610.023 547.5 604.5V155.5C547.5 149.977 543.023 145.5 537.5 145.5H478C472.477 145.5 468 141.023 468 135.5V59L545.006 8.63123C546.633 7.56687 548.536 7 550.48 7H1010.5V90.3737C1010.5 93.8671 1008.68 97.1072 1005.69 98.9207L929 145.5H744.5V535.819C744.5 538.494 743.428 541.058 741.524 542.937L669 614.5Z" fill="#4E75DA"/>
<path d="M468 59H929M468 59V135.5C468 141.023 472.477 145.5 478 145.5H537.5C543.023 145.5 547.5 149.977 547.5 155.5V604.5C547.5 610.023 551.977 614.5 557.5 614.5H669M468 59L545.006 8.63123C546.633 7.56687 548.536 7 550.48 7H1010.5M929 59V145.5M929 59L1010.5 7M929 145.5L1005.69 98.9207C1008.68 97.1072 1010.5 93.8671 1010.5 90.3737V7M929 145.5H744.5M669 614.5V155.5C669 149.977 673.477 145.5 679 145.5H744.5M669 614.5L741.524 542.937C743.428 541.058 744.5 538.494 744.5 535.819V145.5" stroke="#E4871A" stroke-width="2"/>
<path d="M1020.5 615H853.809C851.059 615 848.43 613.867 846.541 611.868L800.732 563.391C798.977 561.534 798 559.077 798 556.523V391.657C798 389.295 798.836 387.01 800.359 385.206L849.5 327L925.721 296.707C926.896 296.24 928.15 296 929.414 296H1106L1158 356.5V534L1108.01 590.242C1106.7 591.714 1104.98 592.767 1103.08 593.269L1020.5 615Z" fill="#DA7E3B"/>
<path d="M1020.5 615H853.809C851.059 615 848.43 613.867 846.541 611.868L800.732 563.391C798.977 561.534 798 559.077 798 556.523V391.657C798 389.295 798.836 387.01 800.359 385.206L849.5 327M1020.5 615L1070 560.5M1020.5 615L1103.08 593.269C1104.98 592.767 1106.7 591.714 1108.01 590.242L1158 534M1070 560.5V388M1070 560.5L1158 534M1070 388L1020.5 327M1070 388L1158 356.5M1020.5 327H849.5M1020.5 327L1106 296M849.5 327L925.721 296.707C926.896 296.24 928.15 296 929.414 296H1106M1106 296L1158 356.5M1158 356.5V534" stroke="#2852EB" stroke-width="2"/>
<path d="M970.118 527H899.706L878.5 505.806V438.722L896.724 418.335C898.621 416.213 901.333 415 904.18 415H941H970.118L990.5 438.722V472.264V505.806L970.118 527Z" fill="#C25C11"/>
<path d="M899.706 527H970.118L990.5 505.806M899.706 527L878.5 505.806M899.706 527L955 505.806M990.5 505.806H955M990.5 505.806V472.264V438.722L970.118 415H941M878.5 438.722L896.724 418.335C898.621 416.213 901.333 415 904.18 415H941M878.5 438.722V505.806M878.5 438.722L933.5 422.5M878.5 505.806L933.5 485M933.5 485L955 505.806M933.5 485V422.5M933.5 422.5L941 415" stroke="#2852EB" stroke-width="2"/>
<path d="M969.5 416.5H941.5L935 423V484.5L955.5 504.5H989V439L969.5 416.5Z" fill="#242424" stroke="black" stroke-width="2"/>
<path d="M1242.84 514.775V331L1320.59 299.5H1404.5V435.5L1455.31 481L1463.21 473.326V331L1530 299.5H1629.5V482L1404.5 704.5L1329 739H1242.84V675L1320.59 602.667L1242.84 514.775Z" fill="#DA7E3B"/>
<path d="M1242.84 331V514.775L1320.59 602.667L1242.84 675V739H1329M1242.84 331H1333.91M1242.84 331L1320.59 299.5H1404.5M1329 739L1556 514.775M1329 739L1404.5 704.5L1629.5 482M1556 514.775V331M1556 514.775L1629.5 482M1556 331H1463.21M1556 331L1629.5 299.5M1463.21 331V473.326L1455.31 481M1463.21 331L1530 299.5H1629.5M1333.91 473.326L1397.92 536.748L1455.31 481M1333.91 473.326V331M1333.91 473.326L1404.5 435.5M1333.91 331L1404.5 299.5M1404.5 299.5V435.5M1404.5 435.5L1455.31 481M1629.5 299.5V482" stroke="#2852EB" stroke-width="2"/>
</svg>
