<svg width="582" height="588" viewBox="0 0 582 588" fill="none" xmlns="http://www.w3.org/2000/svg">
<path d="M160.542 133.847L161.308 173.713H204.082L199.31 133.847H160.542Z" fill="#2852EB" stroke="#2852EB" stroke-width="4"/>
<path d="M201.779 130.899L220.5 286.776L269.517 133.632C270.089 131.846 270.147 129.935 269.685 128.118L259.896 89.6519M201.779 130.899L160.558 132.64M201.779 130.899L259.896 89.6519M160.558 132.64L159.789 176.42M160.558 132.64L222.515 91.3316C224.158 90.2363 226.088 89.6519 228.062 89.6519H259.896" stroke="#A8A8A8" stroke-width="4"/>
<path d="M14 232.5L109.401 478.917L99.6243 400.286C99.5005 399.289 99.2272 398.317 98.8139 397.402L1.5 182L14 232.5Z" fill="#F3F4E3"/>
<path d="M1.5 182L14 232.5L109.401 478.917L99.6243 400.286C99.5005 399.289 99.2272 398.317 98.8139 397.402L1.5 182ZM1.5 182L85.3163 328.471C85.8077 329.33 86.169 330.257 86.3883 331.222L96.0213 373.609" stroke="#A8A8A8" stroke-width="2" stroke-linecap="round"/>
<path d="M229.224 317.032L179.659 305.653C177.991 305.27 176.752 303.868 176.575 302.166L168.045 219.844H113.814L158.921 177.707C159.662 177.015 160.638 176.63 161.652 176.63H209.039L234.053 312.408C234.574 315.237 232.028 317.675 229.224 317.032Z" fill="#F3F4E3"/>
<path d="M168.045 219.844L176.575 302.166C176.752 303.868 177.991 305.27 179.659 305.653L229.224 317.032C232.028 317.675 234.574 315.237 234.053 312.408L209.039 176.63M168.045 219.844H113.814M168.045 219.844L209.039 176.63M113.814 219.844L111.679 305.012L131.322 313.194M113.814 219.844L158.921 177.707C159.662 177.015 160.638 176.63 161.652 176.63H209.039" stroke="#A8A8A8" stroke-width="4" stroke-linecap="round"/>
<path d="M139.577 549.401L224.696 326.41L215.587 324.103L133.194 322.718H101.43L93.8862 327.039V295.363L123 0.5L139.202 63.5384C139.451 64.5073 139.553 65.5081 139.505 66.5073L133.194 197.919L111.452 218.087L109.203 307.248L132.444 316.801L133.194 322.718L215.587 324.103V290.958L317.5 4.5L323.849 72.8706C323.949 73.9497 323.873 75.0379 323.624 76.0927L268.094 311.324C267.553 313.616 267.838 316.025 268.899 318.127L277.878 335.92C279.26 338.657 279.309 341.877 278.012 344.656L247.437 410.147C246.803 411.504 245.873 412.701 244.715 413.651L222.333 431.995C220.723 433.315 219.564 435.105 219.02 437.116L196.007 522.106C195.776 522.958 195.659 523.836 195.659 524.719V533.907C195.659 535.272 195.38 536.622 194.838 537.875L175.059 583.628C174.183 585.655 171.492 586.073 170.043 584.407L139.577 549.401Z" fill="#EBFF00"/>
<path d="M224.696 326.41L139.577 549.401M224.696 326.41L215.587 290.958M224.696 326.41L215.587 324.103M139.577 549.401L130.895 522.131M139.577 549.401L170.043 584.407C171.492 586.073 174.183 585.655 175.059 583.628L194.838 537.875C195.38 536.622 195.659 535.272 195.659 533.907V524.719C195.659 523.836 195.776 522.958 196.007 522.106L219.02 437.116C219.564 435.105 220.723 433.315 222.333 431.995L244.715 413.651C245.873 412.701 246.803 411.504 247.437 410.147L278.012 344.656C279.309 341.877 279.26 338.657 277.878 335.92L268.899 318.127C267.838 316.025 267.553 313.616 268.094 311.324L323.624 76.0927C323.873 75.0379 323.949 73.9497 323.849 72.8706L317.5 4.5L215.587 290.958M215.587 290.958V324.103M215.587 324.103L133.194 322.718M101.43 322.718L93.8862 295.363M101.43 322.718L93.8862 327.039M101.43 322.718H133.194M93.8862 295.363L123 0.5L139.202 63.5384C139.451 64.5073 139.553 65.5081 139.505 66.5073L133.194 197.919L111.452 218.087L109.203 307.248L132.444 316.801L133.194 322.718M93.8862 295.363V327.039M93.8862 327.039L97.16 346.339" stroke="#BECE02" stroke-width="2" stroke-miterlimit="1.41421"/>
<path d="M106.754 332.704H168.045L192.611 337.704C193.379 337.86 194.055 338.311 194.495 338.959L202.634 350.954L136.827 524.288C136.313 525.641 134.576 526.017 133.549 524.998L112.675 504.3L94.0185 350.992C93.9331 350.29 94.0985 349.581 94.4855 348.988L104.243 334.062C104.797 333.214 105.741 332.704 106.754 332.704Z" fill="#FF0000"/>
<path d="M168.045 332.704H106.754C105.741 332.704 104.797 333.214 104.243 334.062L94.4855 348.988C94.0985 349.581 93.9331 350.29 94.0185 350.992L112.675 504.3M168.045 332.704L178.578 352.422M168.045 332.704L192.611 337.704C193.379 337.86 194.055 338.311 194.495 338.959L202.634 350.954M178.578 352.422L112.675 504.3M178.578 352.422L190.606 351.688L202.634 350.954M112.675 504.3L133.549 524.998C134.576 526.017 136.313 525.641 136.827 524.288L202.634 350.954" stroke="#B91010" stroke-width="2"/>
<path d="M196.797 535.765V524.126C196.797 523.219 196.921 522.316 197.164 521.443L220.433 437.904C220.984 435.925 222.131 434.164 223.719 432.86L247.328 413.466L283 389.12L307.483 356.309C308.363 355.13 309.491 354.16 310.789 353.468L580.5 209.5L535.579 261.332C535.194 261.777 534.77 262.186 534.313 262.556L196.797 535.765Z" fill="#F3F4E3"/>
<path d="M580.5 209.5L535.579 261.332C535.194 261.777 534.77 262.186 534.313 262.556L196.797 535.765V524.126C196.797 523.219 196.921 522.316 197.164 521.443L220.433 437.904C220.984 435.925 222.131 434.164 223.719 432.86L247.328 413.466L283 389.12M580.5 209.5L310.789 353.468C309.491 354.16 308.363 355.13 307.483 356.309L283 389.12M580.5 209.5L283 389.12" stroke="#A8A8A8" stroke-width="2"/>
</svg>
